<svg xmlns="http://www.w3.org/2000/svg" xmlns:xlink="http://www.w3.org/1999/xlink" viewBox="0 0 397.08 397.51"><defs><style>.cls-1{fill:none;}.cls-1,.cls-2,.cls-3{stroke:#000;}.cls-1,.cls-3{stroke-miterlimit:10;}.cls-2{stroke-width:0;fill:url(#linear-gradient);}.cls-3{fill:#fff;}</style><linearGradient id="linear-gradient" x1="0.5" y1="396.84" x2="397.08" y2="0.26" gradientUnits="userSpaceOnUse"><stop offset="0" stop-color="#8499fb"/><stop offset="0.64" stop-color="#fff"/><stop offset="0.86" stop-color="#b0bdfc"/><stop offset="1" stop-color="#8499fb"/></linearGradient></defs><title>playerAsset 12</title><g id="Layer_2" data-name="Layer 2"><g id="Layer_1-2" data-name="Layer 1"><line class="cls-1" x1="203.81" y1="371.8" x2="206.25" y2="382.33"/><rect class="cls-2" x="0.5" y="0.26" width="396.58" height="396.58"/><path class="cls-1" d="M266.9,5,262,16.57a42.74,42.74,0,0,0-2.59,6.1,66.26,66.26,0,0,1-2.89,7.27s-2.44,2.56-2.74,3.74-5.48,13.37-5.48,13.37l-2.14,7.67-3,6.29-2,7.47L239,73s-2.44,6.89-2.59,8.85-2.13,5.51-2.13,5.51a27.74,27.74,0,0,0-2.59,8.06c-.46,3.93-3.81,10.42-3.81,10.42l-1.83,5.51s-12.63,26.94-13.85,32.05-.92,6.29-.92,6.29l-6.7,15.73-3.35,5"/><polyline class="cls-1" points="214.71 158.6 210.47 165.56 207.78 169.04 206.11 171.53 205.34 173.02 203.41 174.85 201.87 176.67"/><path class="cls-1" d="M170.63,176.52a9.59,9.59,0,0,0,2.7.83l5.52,5.8h3.46s-4.75-5.8-5.65-7.62-8.34-12.44-8.34-12.44l-1.67-1.49"/><path class="cls-1" d="M179.53,187.84l-2.32-.5a6.57,6.57,0,0,1-3.67-2.49l-9.84-6.23-21.24-12.47s-8.3-4.23-11.77-4.55-11.2-7.16-11.2-7.16L100,146.21s-.77-1-1.73-2.49-7.53-4.24-7.53-4.24l-1-1.5a5.89,5.89,0,0,0-3.28-2l-2.89-3.74"/><path class="cls-1" d="M104.18,210.71s10.86-1.47,12.75-1.64,19.19-1.3,21.85-1.79,17.67-3.75,17.67-3.75l8.59-2.05h10l2.52-3"/><path class="cls-1" d="M190.85,219.74,188.75,239s-3,14-3.44,21-5.14,27.15-5.14,27.15l-8.58,28.72s-9.81,24-9.81,26-3.85,13.34-3.85,13.34l-4.73,21.49-6,20.58"/><path class="cls-1" d="M83.55.26s19,31.52,23.22,35.36l2.49,3.78,3.25,5.31,4.76,6.15s2.37,4.19,3.24,4.75,6.27,19,6.27,19l1.3,4.75L138.46,90l11,16.76s3.67,5.3,4.54,7,9.73,18.16,9.73,18.16l19.9,38.55-1.7,1.94,3.34,5.64,3.09.66,1.09-1.41-.36-1.42v-1.3l-1.83.47"/><path class="cls-1" d="M195.63,225.67V223.4l-.84-8.48-1.7-2.08-3.54.29v-4.36l-3.23-1.06h-3.87l-6.93,5.65L166.47,220l1.24.34,4-3,.91-.34v.76c0,.76,1.31,2.28,1.31,2.28l-1.11,2-32.21,36.7s-6,7.13-6.94,9.17-6.48,3.88-6.48,3.88l-10.89,10.6s-.47,1.83-1,3.06-12.79,14.47-12.79,14.47L88.82,317.67c-1.11.41-12.32-5.3-12.32-5.3l-4.89-5.91L71,308.9,68,314l-8.84,5.3s-7.58,7.34-10.11,9l-7,4.49L20.77,349.68.5,367.42v3.06"/><polyline class="cls-1" points="195.37 215.28 196.85 222.09 196.85 228.66 197.5 230.93 198.98 236.19 198.98 243"/><path class="cls-1" d="M199,217.43l-.42,7.17c.23,1.07.42,4.54.42,4.54l1.85-4.42,1.57.95,1,1.44-.46-3.23,3.14,3.46-1.69-3.76-1.73-3.84Z"/><path class="cls-1" d="M203.79,216.42l6.38,6.05v2.63s-1.14.9,2.71,1.12,8.52,5.12,8.52,5.12l3.17,6.56,8,8.38L242.45,261l6.85,9.81,6.39,7.27s4,4.68,4.2,5.92,3.51,4.36,3.51,4.36l2.33,2.18v3.11l2.33,1.56L280,305.59s3.27,8,4.43,8h1.17l24,19,7.47,13.07s9.1,13.25,13.77,13.79,6.3,9.57,6.3,9.57l31.62,28.13-20.52-20.06-5.47-6.66-11.59-16.53L299,319.75,282,304.51s-6.44-5.58-9.5-9.87-9.33-14.6-9.33-14.6L259,276.61l-6.12-7.95-10-15.45-4.67-5.15-6.44-9-9.49-15.46,1.29,6L211,216.42l-4.9-5.71,1.68,5.79,7.24,7.08h-2.57Z"/><polygon class="cls-1" points="209.31 183.94 209.97 189.27 211.44 187.03 216.91 186.6 218.64 185.14 212.37 183.94 212.51 178.66 209.75 179.91 209.31 183.94"/><polyline class="cls-1" points="223.34 176.67 217.86 181.16 214.71 181.16"/><line class="cls-1" x1="220.9" y1="183.97" x2="226.39" y2="182.9"/><path class="cls-1" d="M225.7,195.43l4.71,4.78h4.75l2.08,1.21s4-2.42,4.63-3,9.38-3,9.38-3l2.68-4.66,1.22-4.6h31.13s6.86-2.65,7.74-2.74,6.13-.6,8.47-.53,17.82,0,17.82,0l32.73.53,10.23-9.52a28.29,28.29,0,0,1,9.64,2.76c5.26,2.52,9.64,11,9.64,11h6.72l6.38-1.49"/><path class="cls-1" d="M202.33,249.65l3.77,28.27s2.44,9.42,3.21,15.37,3.06,23.31,3.06,23.31,5.24,19.34,6.27,27.28,2.26,29.26,2.26,29.26"/><path class="cls-1" d="M165.05,186.1l4.62,1.74,3.29,1.25,3.28,1.74,1.64.55-2.82,1H164.59s9.7-.29,9.89.43a3.23,3.23,0,0,0,1.08,1.35h1.65l.33,1.92-10.89,3.42,9.12-1.79,3.76,1.79,2.18-9.78-.76-2.61-5,2Z"/><path class="cls-1" d="M70.48,306.41s-5.52-5.53-7.68-5.53-3.46-8.15-3.46-8.15L44.63,274.07,33.82,246.41l-5.19-9.32-3-13.88V218l-2.17-7.11"/><polyline class="cls-1" points="206.1 210.71 208.29 205.94 213.93 208.45 211.62 202.63 239.58 217.43 266.9 212.84 277.49 219.74 295.52 223.28 301.73 229.14 307.32 229.14 325.35 236.72"/><line class="cls-1" x1="178.79" y1="210.88" x2="188.55" y2="210.88"/><polygon class="cls-3" points="181.45 207.71 179.53 199.45 181.71 189.67 180.95 187.06 179.98 187.44 179.98 187.05 179.98 183.15 182.31 183.15 178.79 178.66 185.12 181.84 183.26 174.53 185.31 178 188.4 178.66 189.5 177.25 189.13 174.53 191.23 176.67 192.09 174.66 194.63 169.91 194.63 174.92 198.56 174.05 198.98 177.16 202.33 179.15 204.19 177.68 205.5 181.16 209.31 181.16 209.62 181.16 209.31 183.94 209.97 189.27 217.39 196.44 211.62 196.44 211.62 202.63 213.93 208.45 208.29 205.94 206.2 210.49 204.19 207.71 203.79 216.42 201.08 218.74 197.52 215.28 195.37 215.28 193.79 214.92 192.09 212.84 188.55 213.13 188.55 208.77 185.32 207.71 181.45 207.71"/></g></g></svg>