<svg xmlns="http://www.w3.org/2000/svg" xmlns:xlink="http://www.w3.org/1999/xlink" viewBox="0 0 369.17 398.35"><defs><style>.cls-1{fill:#e1e1e1;}.cls-1,.cls-2,.cls-3,.cls-4,.cls-6,.cls-7,.cls-8{stroke:#000;stroke-miterlimit:10;}.cls-3{fill:none;}.cls-4{fill:#fcfbd6;}.cls-5{fill:#da85e2;}.cls-6{fill:#edff00;}.cls-7{fill:url(#White_Black);}.cls-8{fill:url(#White_Black-2);}</style><linearGradient id="White_Black" x1="64.39" y1="122.49" x2="142.47" y2="122.49" gradientUnits="userSpaceOnUse"><stop offset="0" stop-color="#fff"/><stop offset="1"/></linearGradient><linearGradient id="White_Black-2" x1="66.72" y1="112.38" x2="111.24" y2="112.38" gradientTransform="translate(136.47 -22.87) rotate(57.72)" xlink:href="#White_Black"/></defs><title>Asset 70</title><g id="Layer_2" data-name="Layer 2"><g id="Layer_6" data-name="Layer 6"><rect class="cls-1" x="0.5" y="0.5" width="368.17" height="397.35" rx="7.04"/><rect class="cls-2" x="7.06" y="50.8" width="353.59" height="258.81"/><line class="cls-3" x1="0.5" y1="22.37" x2="368.67" y2="22.37"/><rect class="cls-4" x="7.06" y="317.83" width="353.59" height="24.6" rx="3.67"/><rect class="cls-3" x="61.76" y="323.16" width="257.88" height="9.43"/><rect class="cls-3" x="26.4" y="353.81" width="38.66" height="7.54" rx="1.88"/><polygon class="cls-2" points="55.68 321.09 60.63 326.04 65.57 321.09 55.68 321.09"/><circle class="cls-1" cx="64.33" cy="357.15" r="5.84"/><polygon class="cls-3" points="9.65 354.84 9.65 361.14 13.64 361.14 17.23 363.72 17.23 352.04 13.44 354.83 9.65 354.84"/><path class="cls-3" d="M20.28,358a2.31,2.31,0,0,1-1.53,2.33"/><path class="cls-3" d="M22.08,357.88a4.47,4.47,0,0,1-2.33,4"/><path class="cls-3" d="M23.9,358a6.28,6.28,0,0,1-2.79,5.21"/><path class="cls-3" d="M20.28,358.09a2.31,2.31,0,0,0-1.53-2.33"/><path class="cls-3" d="M22.08,358.24a4.5,4.5,0,0,0-2.33-4"/><path class="cls-3" d="M23.9,358.09a6.27,6.27,0,0,0-2.79-5.21"/><circle class="cls-3" cx="107.79" cy="364.14" r="12.5"/><polygon class="cls-3" points="104.15 363.72 111.81 368.73 111.81 358.81 104.15 363.72"/><rect class="cls-3" x="101.88" y="358.41" width="1.89" height="10.75"/><circle class="cls-3" cx="263.79" cy="364.14" r="12.5"/><polygon class="cls-3" points="267.43 363.72 259.77 368.73 259.77 358.81 267.43 363.72"/><rect class="cls-3" x="267.81" y="358.41" width="1.89" height="10.75"/><circle class="cls-3" cx="227.29" cy="367.64" r="16"/><polygon class="cls-3" points="228.95 367.11 219.15 373.52 219.15 360.81 228.95 367.11"/><polygon class="cls-3" points="238.95 367.11 229.15 373.52 229.15 360.81 238.95 367.11"/><circle class="cls-3" cx="143.29" cy="367.64" r="16"/><polygon class="cls-3" points="141.64 367.11 151.44 373.52 151.44 360.81 141.64 367.11"/><polygon class="cls-3" points="131.64 367.11 141.44 373.52 141.44 360.81 131.64 367.11"/><circle class="cls-3" cx="185.33" cy="368.61" r="18.48"/><polygon class="cls-3" points="195.91 368.1 178.93 376.64 178.93 359.73 195.91 368.1"/><path class="cls-3" d="M365.68,363.08C332,380.92,263.63,393.13,184.81,393.13S37.4,380.88,3.76,363"/><rect class="cls-5" x="56.18" y="51.3" width="257.81" height="257.81"/><path d="M313.49,51.8V308.62H56.68V51.8H313.49m1-1H55.68V309.62H314.49V50.8Z"/><rect class="cls-3" x="336.28" y="6.48" width="8.56" height="9.67"/><rect class="cls-3" x="336.28" y="6.48" width="8.56" height="2.98"/><rect class="cls-3" x="320.16" y="13.43" width="8.81" height="2.73"/><polygon class="cls-3" points="361.36 14.5 358.05 11.2 361.24 8.01 359.83 6.6 356.64 9.79 353.34 6.48 351.92 7.89 355.23 11.2 351.81 14.62 353.22 16.04 356.64 12.61 359.95 15.91 361.36 14.5"/><path class="cls-6" d="M255.75,108s-29.92,0-47.31,22.37L198.25,144.2s-2.08,3.91-6.24,4.17-8.33,13.79-8.33,13.79a38.72,38.72,0,0,0-1.29,9.7c.16,4.34,0,10.88,0,10.88s-.82,2.88-1.56.79V179.3s-1.14-2.2-4.82-2.45l-8.18,1.31s-1.79.82-1.71,3.68a34.86,34.86,0,0,1,0,3.6s-.41.81-1.8.57S157,176.2,157,176.2L140,152.41l-11.72,8.21,52.62,86.72v19.17s-.45,8.7,7.8,12.49,34.11,9.36,64,0c19.33-6.06,23.44-18.28,23.94-26.15l2.07-40.74s7.67-20.29,11.44-36.16S303.36,107.52,255.75,108Zm26.87,48.81s-1.68,1.43-2.63.23v-4.3s-19.86-7.66-61-3.11l-1.31,1.66h-1.32l-5.5-2.63s8.37-14.3,20.81-23.39c10.72-7.84,28.54-6.9,33.27-6.22a12.36,12.36,0,0,1,3,.82c4.14,1.72,14,7.53,14.71,23.77C283.11,156,282.62,156.85,282.62,156.85Z"/><path class="cls-3" d="M278.65,212.11l6.28-46.39s.53-5.86-2.2-7.57"/><path class="cls-3" d="M222.44,150.54s19.08,6.3,56.21,2.74"/><path class="cls-7" d="M128,131h0l-9.29-37.24a21.05,21.05,0,0,0-.58-2.34h0a14.39,14.39,0,0,0-5.91-8.19C102.13,76.88,84.8,86.18,73.52,104s-12.24,37.49-2.14,43.87a14.82,14.82,0,0,0,11,1.62l32.48-4.79a15.3,15.3,0,0,0,1.57-.45L128,163.74c9.8-.23,14.45-8.37,14.45-8.37Z"/><ellipse class="cls-8" cx="88.98" cy="112.38" rx="32.01" ry="16.86" transform="translate(-53.55 127.59) rotate(-57.72)"/></g></g></svg>