<svg xmlns="http://www.w3.org/2000/svg" viewBox="0 0 370.75 660.9"><defs><style>.cls-1{fill:#603813;}.cls-1,.cls-2,.cls-3,.cls-4,.cls-5,.cls-6{stroke:#000;stroke-miterlimit:10;}.cls-2{fill:#ede8d9;}.cls-3{fill:red;}.cls-4{fill:#e1e1e1;}.cls-5{fill:none;}.cls-6{fill:#a8a895;}</style></defs><title>Asset 66</title><g id="Layer_2" data-name="Layer 2"><g id="Layer_5" data-name="Layer 5"><path class="cls-1" d="M154.08,100.22s-34.39,13.09-36.91,32.18a120.93,120.93,0,0,0,1.26,36.68s-1.73,11.31-2.13,14.83,0,18.09,0,18.09-15.84,23.62-15.84,24.87,8.28,13.07,20.53,5.78,14.15-13.06,14.15-13.06L121,203.51s7.22-16.33,7.69-22.11l.47-5.78s12.3,6.45,22.07,4.85,64.4-23.7,64.4-23.7,6.86-16.83,7.18-24.62-18-36.43-40.05-34.17C182.75,98,163.9,95.5,154.08,100.22Z"/><path class="cls-2" d="M197.16,300.2c-.54,8.23-2.71,7.79-2.71,7.79-2.59,15.14-6.44,16.68-6.44,16.68l1.1,30.05,9.37,5s-10.11,32.79-32.85,47.75-68.58-31.64-68.58-31.64l12-8.23,4.93-3.39-1.8-23.19-9.75-10.64s-4,6.62-13-1.15S66,312.32,76.11,308h8.31a193.86,193.86,0,0,1-10-18.34c-4-8.63-7-37.75,5.71-43.8,0,0,26.35-22.14,67.38-23.36,10-.32,22.08,7.68,22.08,7.68,20.19,13,18.38,52.26,18.38,52.26C196.08,279.4,197.71,292,197.16,300.2Z"/><path class="cls-3" d="M110,370.29s21.52,19.83,41.66,26.77,47-43.89,47-43.89,76.3-13.32,104.12,17.66l-16.8,112.94s0,51.38,5.38,72.79S339.68,660.4,339.68,660.4H78.39s.67-57.27,0-79.75,0-72.92,0-72.92-73.21,3.34-77.24,3.34,12.09-97.42,12.09-97.42l78.59-43.36,16.12-6Z"/><path class="cls-4" d="M147.46,222.49l18.47-8.64L169.15,202l-25.3-30.4a20.79,20.79,0,0,1-12.85,0c-7.22-2.24-12.44-13.75-8.83-17.91s12.85,0,12.85,0l-3.62-13.44,13.67-13.44s24.08-20.8,44.15-14.08,23.29,21.12,23.29,21.12,5.14,15.49,2.2,26.88c-2.62,10.18-11.84,16-11.84,16l4.42,4.8s-5.24,32.64-37.75,48.64C169.54,230.17,157.5,222.17,147.46,222.49Z"/><path class="cls-5" d="M202.87,176.73s-13.81,3.91-27.05,1.4a195.27,195.27,0,0,0-20.81-3"/><path class="cls-6" d="M207.29,181.53a136.19,136.19,0,0,1,22.77-26.4s11.05-41.08,15.55-46c0,0,28.63-24.52,32.31,2.25s.82,32.64,2.05,44.37,4.09,30.32,4.09,30.32,48.27,90.63,57.68,101.06c6.45,7.15,9.25,38.34,10.37,57.26.55,9.25-3.52,18.28-11.35,25.11-6.83,6-16.89,14.85-30.93,27.49-31.5,28.36-34.77,29.34-34.77,29.34s9.64,15.07,11.27,22.87c0,0-39.69,2.17-52.19-3.9,0,0-8.7-14.73-7.62-24.26s11.57-30.33,11.57-30.33l-39.84,29,6.53,18.63-17.95-3.9s-29.35-28.16-31-28.16-12.51-.43-12.51-.43,35.88-38.13,42.95-47.23,7.07-14.29,7.07-14.29l1.09-36.4s2.17.44,2.71-7.79-1.08-20.8-9.24-17.77c0,0,1.81-39.27-18.38-52.26C169.54,230.17,199.51,217.77,207.29,181.53Z"/><path class="cls-4" d="M263.68,139.45s-18.11-12.3-15.62-24.6,23.33-52,23.33-52-5-23.37-3.47-27.36,5.4-7.39,8.88-7.39c0,0,24.31-27.36,26.62-27.36s4.63-1.54,3.09,2.76S288.37,26.6,288.37,26.6l12,1.84,3.08,6.46s5.25.62,3.59,7.69-17.09,23.68-17.09,23.68S282.2,118.54,263.68,139.45Z"/><path class="cls-4" d="M169.27,463.66s10.66,14.41,29.2,35.83,32.44,39.16,32.44,39.16,7,9.6,3.25,18.09-31.52,36.94-27.81,39.16,12.51.37,16.68,0,27.82-25.86,37.55-28.81,21.32-7.76,20.86-13.67-18.08-14.07-25-23.1-31.05-56-31.05-56S186.88,458.49,169.27,463.66Z"/><path class="cls-4" d="M257.8,490.63s27.81,46.17,33.37,54.29,10.66,14,10.66,21.06-3.24,36.2-3.24,36.2,3.71,5.91,11.12,0,23.92-8.35,26.32-12.5-3.61-15.67-3.61-19.83,1.21-10.23,0-14.07-14-14.7-14-14.7l-14.45-40.29Z"/><polyline class="cls-5" points="49.51 465.03 77.72 490.63 78.39 507.73"/><path class="cls-2" d="M6.82,510.88V567.5S0,606.4,10.51,660.4H53.83s4.64-84.76,4.64-90.19,12.69-62.15,12.69-62.15Z"/><path class="cls-2" d="M143.34,405.91H120s.65,7.1,11.67,7.65,11.67,4.38,11.67,4.38L120,426.16s-5.5,10.41-3.44,13.15a28.4,28.4,0,0,1,3.44,7.12s3.43,19.72,6.87,20.27,30.25-2.19,57.75,0,83.88,33.42,83.88,33.42,82.5,11,92.12,6.58,9.63-26.85,9.63-26.85-19.21-54.21-50.17-92c0,0-33.57,31.12-45,38.54,0,0,8.7,13.74,11.27,22.87,0,0-46.53-1.45-59.8-5.64l-39.7-10.21-29.58-27Z"/></g></g></svg>