<svg xmlns="http://www.w3.org/2000/svg" xmlns:xlink="http://www.w3.org/1999/xlink" viewBox="0 0 1122.76 1197.76"><defs><style>.cls-1,.cls-4{fill:#fff;}.cls-1,.cls-2,.cls-3,.cls-4{stroke:#000;}.cls-1,.cls-3{stroke-width:0;}.cls-2{fill:none;}.cls-2,.cls-4{stroke-miterlimit:10;}.cls-3{fill:url(#linear-gradient);}</style><linearGradient id="linear-gradient" x1="725.68" y1="397.08" x2="1122.26" y2="0.5" gradientUnits="userSpaceOnUse"><stop offset="0" stop-color="#8499fb" stop-opacity="0.2"/><stop offset="0.64" stop-color="#fff"/><stop offset="0.75" stop-color="#d7defe" stop-opacity="0.74"/><stop offset="0.92" stop-color="#9cadfc" stop-opacity="0.35"/><stop offset="1" stop-color="#8499fb" stop-opacity="0.2"/></linearGradient></defs><title>Asset 17</title><g id="Layer_2" data-name="Layer 2"><g id="Layer_1-2" data-name="Layer 1"><polygon class="cls-1" points="88.78 1197.76 772.14 1197.76 675.52 1033.88 1122.26 397.08 1122.26 0.5 725.68 0.5 0 1033.88 88.78 1197.76"/><line class="cls-2" x1="928.99" y1="372.04" x2="931.43" y2="382.57"/><rect class="cls-3" x="725.68" y="0.5" width="396.58" height="396.58"/><path class="cls-2" d="M992.08,5.21l-4.87,11.6a42.74,42.74,0,0,0-2.59,6.1,66.26,66.26,0,0,1-2.89,7.27s-2.44,2.56-2.74,3.74-5.48,13.37-5.48,13.37L971.37,55l-3,6.29-2,7.47-2.13,4.53s-2.44,6.88-2.59,8.84-2.13,5.51-2.13,5.51a27.41,27.41,0,0,0-2.59,8.06c-.46,3.94-3.81,10.42-3.81,10.42l-1.83,5.51s-12.63,26.94-13.85,32-.92,6.29-.92,6.29l-6.7,15.74-3.35,5"/><polyline class="cls-2" points="939.89 158.84 935.65 165.81 932.95 169.29 931.29 171.77 930.52 173.26 928.59 175.09 927.05 176.91"/><path class="cls-2" d="M895.81,176.76a9.59,9.59,0,0,0,2.7.83l5.52,5.8h3.46s-4.75-5.8-5.65-7.62-8.34-12.44-8.34-12.44l-1.67-1.49"/><path class="cls-2" d="M904.71,188.08l-2.32-.5a6.52,6.52,0,0,1-3.67-2.49l-9.84-6.23L867.64,166.4s-8.3-4.24-11.77-4.56-11.2-7.16-11.2-7.16l-19.5-8.23s-.77-1-1.73-2.49-7.53-4.24-7.53-4.24l-1-1.49a5.86,5.86,0,0,0-3.28-2l-2.89-3.74"/><path class="cls-2" d="M829.36,211s10.86-1.47,12.75-1.63S861.3,208,864,207.52s17.67-3.75,17.67-3.75l8.59-2.05h10l2.51-3"/><path class="cls-2" d="M916,220l-2.1,19.23s-3,14-3.44,21-5.14,27.14-5.14,27.14l-8.58,28.72s-9.81,24-9.81,26-3.85,13.34-3.85,13.34L878.38,377l-6,20.58"/><path class="cls-2" d="M808.73.5S827.78,32,832,35.87l2.49,3.78,3.25,5.3,4.75,6.15s2.38,4.19,3.25,4.75,6.27,19,6.27,19l1.3,4.75,10.38,10.62,11,16.76s3.67,5.31,4.54,7S889,132.11,889,132.11l19.9,38.55-1.7,1.94,3.34,5.64,3.09.66,1.09-1.41-.36-1.42v-1.3l-1.83.47"/><path class="cls-2" d="M920.81,225.91v-2.27l-.84-8.48-1.7-2.08-3.54.29V209L911.5,208h-3.87l-6.93,5.65-9.06,6.65,1.25.34,4-3,.91-.34V218c0,.76,1.31,2.28,1.31,2.28l-1.11,2L865.78,259s-6,7.13-6.94,9.17-6.48,3.88-6.48,3.88l-10.89,10.6s-.47,1.83-1,3.06-12.79,14.47-12.79,14.47L814,317.91c-1.11.41-12.32-5.3-12.32-5.3l-4.89-5.91-.63,2.44-3,5.1-8.84,5.3s-7.58,7.34-10.11,9l-7,4.49L746,349.92l-20.27,17.74v3.06"/><polyline class="cls-2" points="920.55 215.52 922.03 222.33 922.03 228.9 922.68 231.17 924.16 236.43 924.16 243.24"/><path class="cls-2" d="M924.16,217.67l-.42,7.17c.23,1.07.42,4.54.42,4.54L926,225l1.57.95,1,1.44-.47-3.23,3.15,3.47-1.69-3.77L927.86,220Z"/><path class="cls-2" d="M929,216.67l6.38,6v2.63s-1.14.9,2.71,1.12,8.52,5.13,8.52,5.13l3.17,6.55,8,8.38,9.86,14.71,6.85,9.81,6.39,7.28s4,4.67,4.2,5.91,3.5,4.36,3.5,4.36l2.34,2.18v3.11l2.33,1.56,11.91,10.39s3.26,8,4.43,8h1.17l24,19,7.47,13.08s9.1,13.24,13.77,13.78,6.3,9.57,6.3,9.57L1094,397.37l-20.52-20.06-5.47-6.66-11.59-16.53L1024.19,320l-17.05-15.24s-6.44-5.58-9.5-9.87-9.33-14.6-9.33-14.6l-4.18-3.43L978,268.91l-10-15.46-4.67-5.15-6.44-9-9.49-15.46,1.29,6-12.55-13.17-4.9-5.72,1.68,5.79,7.24,7.08h-2.57Z"/><polygon class="cls-2" points="934.49 184.18 935.15 189.51 936.62 187.28 942.09 186.85 943.82 185.38 937.55 184.18 937.68 178.91 934.93 180.15 934.49 184.18"/><polyline class="cls-2" points="948.52 176.91 943.04 181.41 939.89 181.41"/><line class="cls-2" x1="946.08" y1="184.21" x2="951.57" y2="183.14"/><path class="cls-2" d="M950.88,195.67l4.71,4.78h4.75l2.08,1.21s4-2.42,4.63-3,9.38-3,9.38-3l2.68-4.66,1.22-4.59h31.13s6.86-2.65,7.73-2.75,6.14-.6,8.48-.53,17.82,0,17.82,0l32.73.53,10.22-9.52a28.31,28.31,0,0,1,9.65,2.76c5.26,2.52,9.64,11,9.64,11h6.72l6.38-1.49"/><path class="cls-2" d="M927.51,249.89l3.77,28.27s2.44,9.42,3.21,15.37,3.06,23.31,3.06,23.31,5.24,19.34,6.27,27.28,2.26,29.26,2.26,29.26"/><path class="cls-2" d="M890.23,186.34l4.62,1.74,3.29,1.25,3.28,1.74,1.64.56-2.82.94H889.77s9.7-.29,9.89.43a3.23,3.23,0,0,0,1.08,1.35h1.65l.33,1.92-10.89,3.43,9.12-1.8,3.76,1.8,2.18-9.79-.76-2.61-5,2Z"/><path class="cls-2" d="M795.66,306.65s-5.52-5.53-7.68-5.53-3.46-8.15-3.46-8.15l-14.71-18.66L759,246.65l-5.19-9.32-3-13.88v-5.17l-2.17-7.1"/><polyline class="cls-2" points="931.28 210.95 933.47 206.18 939.11 208.69 936.8 202.87 964.76 217.67 992.08 213.08 1002.67 219.98 1020.7 223.52 1026.91 229.38 1032.51 229.38 1050.53 236.96"/><line class="cls-2" x1="903.97" y1="211.12" x2="913.73" y2="211.12"/><polygon class="cls-4" points="906.63 207.95 904.71 199.69 906.89 189.91 906.13 187.3 905.16 187.68 905.16 187.29 905.16 183.39 907.49 183.39 903.97 178.91 910.3 182.08 908.44 174.77 910.49 178.24 913.58 178.91 914.67 177.49 914.31 174.77 916.41 176.91 917.27 174.91 919.81 170.15 919.81 175.16 923.74 174.29 924.16 177.41 927.51 179.39 929.37 177.92 930.67 181.41 934.49 181.41 934.79 181.4 934.49 184.18 935.15 189.51 942.57 196.68 936.8 196.68 936.8 202.87 939.11 208.69 933.47 206.18 931.38 210.73 929.37 207.95 928.97 216.66 926.26 218.98 922.7 215.52 920.55 215.52 918.97 215.16 917.27 213.08 913.73 213.37 913.73 209.01 910.5 207.95 906.63 207.95"/><line class="cls-2" y1="1033.87" x2="675.72" y2="1033.88"/><rect class="cls-2" x="725.68" y="0.5" width="396.58" height="396.58"/></g></g></svg>