<svg xmlns="http://www.w3.org/2000/svg" viewBox="0 0 597.25 559.49"><defs><style>.cls-1{fill:#ffffd7;stroke:#000;stroke-miterlimit:10;}</style></defs><title>Asset 16</title><g id="Layer_2" data-name="Layer 2"><g id="Layer_1-2" data-name="Layer 1"><rect class="cls-1" x="272.21" y="299.78" width="64.86" height="226.62"/><rect class="cls-1" x="484.54" y="266.04" width="64.86" height="260.28"/><rect class="cls-1" x="21.8" y="299.78" width="86.34" height="259.02"/><polygon class="cls-1" points="108.14 558.8 155.44 543.03 155.44 299.78 108.14 299.78 108.14 558.8"/><polygon class="cls-1" points="365.42 558.8 412.71 543.03 412.71 290.98 365.42 299.78 365.42 558.8"/><polygon class="cls-1" points="549.39 526.32 596.69 510.55 596.69 258.5 549.39 259.04 549.39 526.32"/><rect class="cls-1" x="279.07" y="299.78" width="86.34" height="259.02"/><polygon class="cls-1" points="279.07 258.5 596.69 258.5 365.42 299.78 21.8 299.78 279.07 258.5"/><path class="cls-1" d="M21.8,299.78V61.91S17.57.53,72.23.53H210.32s47.36-2.88,68.75,47v211Z"/><path class="cls-1" d="M572.74,258.64c0-.53-4.73-50.91-19-91-5.86-16.42-28.36-23.63-46.22-26.79a207.63,207.63,0,0,0-41.93-2.7l-.67,0H279.14V115.49H464.57a229.23,229.23,0,0,1,46.57,3c34.5,6,56.74,20.42,64.31,41.65,15.23,42.71,21,95.94,21.24,98.24Z"/><polyline class="cls-1" points="365.42 321.85 596.69 279.14 596.69 258.5 365.42 299.78 21.8 299.78"/><path class="cls-1" d="M41.8,299.78l.07-237.89S37.64.52,92.3.52H71.62C17,.53,21.19,61.91,21.19,61.91V299.78l-.08,22.07H365.42V299.78Z"/><path class="cls-1" d="M341.06,299.67c-.06-.54-6.11-54.13-21.31-94.27-6.22-16.42-30.13-23.63-49.09-26.79a232.21,232.21,0,0,0-44.54-2.7l-.71,0H.5V153.3H225.08a258.37,258.37,0,0,1,49.46,3c36.65,6,60.27,20.42,68.32,41.65,16.17,42.71,22.3,99.56,22.56,101.86Z"/></g></g></svg>