<svg xmlns="http://www.w3.org/2000/svg" viewBox="0 0 113.07 117.65"><defs><style>.cls-1{fill:#006837;}.cls-1,.cls-2,.cls-3{stroke:#000;}.cls-1,.cls-3{stroke-miterlimit:10;}.cls-2{fill:red;stroke-linejoin:bevel;}.cls-3{fill:#ff0;}</style></defs><title>Asset 49</title><g id="Layer_2" data-name="Layer 2"><g id="Layer_5" data-name="Layer 5"><polygon class="cls-1" points="110.32 13.87 0.51 0.57 2.72 117.14 112.56 113.84 110.32 13.87"/><path class="cls-2" d="M110.32,13.87.51.57,2.72,117.14l109.84-3.3Zm-12.08,89a4,4,0,0,1,.08.58,3.48,3.48,0,0,1-.08-.58A3.08,3.08,0,0,0,95,100.29a3.16,3.16,0,0,0-3.23,3.29,3.26,3.26,0,0,0-3.41-3.22,3.19,3.19,0,0,0-3.3,3.31,3.3,3.3,0,0,0-3.48-3.25,3.24,3.24,0,0,0-3.37,3.35,3.35,3.35,0,0,0-3.54-3.29,3.29,3.29,0,0,0-3.44,3.39,3.39,3.39,0,0,0-3.61-3.32A3.33,3.33,0,0,0,64.08,104a3.45,3.45,0,0,0-3.69-3.36,3.39,3.39,0,0,0-3.58,3.46A3.49,3.49,0,0,0,53,100.68a3.43,3.43,0,0,0-3.66,3.49,3.53,3.53,0,0,0-3.83-3.42,3.49,3.49,0,0,0-3.74,3.53,3.59,3.59,0,0,0-3.92-3.46,3.54,3.54,0,0,0-3.82,3.57,3.65,3.65,0,0,0-4-3.5,3.59,3.59,0,0,0-3.9,3.61A3.7,3.7,0,0,0,22.08,101a3.65,3.65,0,0,0-4,3.64l-4.56-3.73s4.1,0,4-3.65-4.17-3.61-4.17-3.61,4.1,0,4-3.6-4.17-3.65-4.17-3.65,4.1,0,4-3.57-4.17-3.68-4.17-3.68,4.1.08,4-3.52S13,71.87,13,71.87s4.1.12,4-3.48-4.17-3.76-4.17-3.76,4.1.16,4-3.44-4.17-3.8-4.17-3.8,4.1.2,4-3.4-4.17-3.84-4.17-3.84,4.1.24,4-3.36-4.17-3.87-4.17-3.87,4.1.28,4-3.32-4.17-3.91-4.17-3.91,4.1.32,4-3.28-4.17-3.94-4.17-3.94,4.11.35,4-3.24-4.18-4-4.18-4c4,.38,4.34-1.75,4.28-2.87a3.2,3.2,0,0,1-.09-.65,3.43,3.43,0,0,1,.09.65,4.2,4.2,0,0,0,4,3.33c4,.38,3.94-3.17,3.94-3.17a4.16,4.16,0,0,0,4,3.94c3.94.37,3.87-3.14,3.87-3.14a4.1,4.1,0,0,0,4,3.89c3.84.37,3.77-3.11,3.77-3.11A4,4,0,0,0,43.77,24a3.05,3.05,0,0,0,3.7-3.08,4,4,0,0,0,3.8,3.8,3,3,0,0,0,3.63-3.05,3.92,3.92,0,0,0,3.72,3.75,3,3,0,0,0,3.55-3,3.88,3.88,0,0,0,3.65,3.72,2.92,2.92,0,0,0,3.48-3,3.82,3.82,0,0,0,3.58,3.68,2.88,2.88,0,0,0,3.4-3,3.76,3.76,0,0,0,3.51,3.63,2.84,2.84,0,0,0,3.34-2.94,3.71,3.71,0,0,0,3.44,3.59,2.8,2.8,0,0,0,3.27-2.92,3.67,3.67,0,0,0,3.38,3.56,2.76,2.76,0,0,0,3.21-2.89c.07,3.18,2.41,3.63,3.29,3.69h.33a2.07,2.07,0,0,1-.33,0,2.66,2.66,0,0,0-2.84,2.91,3.6,3.6,0,0,0,3.31,3.49S97,35.63,97,38.84a3.56,3.56,0,0,0,3.31,3.46s-3.24-.25-3.17,3a3.52,3.52,0,0,0,3.31,3.43s-3.24-.22-3.17,3a3.48,3.48,0,0,0,3.32,3.4s-3.25-.18-3.17,3a3.44,3.44,0,0,0,3.31,3.37s-3.24-.16-3.17,3.06a3.39,3.39,0,0,0,3.31,3.34s-3.24-.12-3.17,3.09A3.37,3.37,0,0,0,101,74.29s-3.24-.1-3.17,3.12a3.32,3.32,0,0,0,3.31,3.28s-3.24-.06-3.17,3.16a3.28,3.28,0,0,0,3.31,3.25,3.06,3.06,0,0,0-3.17,3.19,3.26,3.26,0,0,0,3.32,3.22,3.09,3.09,0,0,0-3.17,3.22,3.21,3.21,0,0,0,3.31,3.19C98.48,100,98.18,101.91,98.24,102.91Z"/><path class="cls-3" d="M36.33,65.8c-3.34,4.52-8.09,6.85-10.59,5.14S24,64.11,27.4,59.56s8.11-6.7,10.54-5S39.64,61.32,36.33,65.8Z"/><path class="cls-3" d="M49.39,48.13c-3.22,4.35-7.79,6.52-10.19,4.79s-1.7-6.75,1.59-11.12,7.81-6.38,10.15-4.61S52.58,43.82,49.39,48.13Z"/><path class="cls-3" d="M38,84.31c-3.33,4.61-8.06,7-10.55,5.41s-1.76-6.78,1.66-11.41,8.07-6.91,10.49-5.23S41.31,79.75,38,84.31Z"/><path class="cls-3" d="M51.12,66.33c-3.21,4.43-7.76,6.71-10.15,5s-1.7-6.69,1.59-11.15,7.76-6.57,10.1-4.87S54.29,61.94,51.12,66.33Z"/><path class="cls-3" d="M65.31,66.82c-3.08,4.34-7.44,6.58-9.74,4.94s-1.63-6.55,1.52-10.92,7.45-6.45,9.69-4.78S68.35,62.51,65.31,66.82Z"/><path class="cls-3" d="M67,84.57c-3.06,4.42-7.41,6.76-9.7,5.19s-1.62-6.51,1.51-11,7.42-6.63,9.66-5S70,80.19,67,84.57Z"/><path class="cls-3" d="M78.94,67.29c-3,4.26-7.15,6.45-9.36,4.85S68,65.72,71,61.44s7.15-6.33,9.31-4.7S81.86,63.06,78.94,67.29Z"/><path class="cls-3" d="M90.48,50.62c-2.85,4.11-6.89,6.16-9,4.54s-1.51-6.34,1.4-10.47,6.9-6,9-4.38S93.3,46.55,90.48,50.62Z"/></g></g></svg>