<svg xmlns="http://www.w3.org/2000/svg" xmlns:xlink="http://www.w3.org/1999/xlink" viewBox="0 0 630.48 554.71"><defs><style>.cls-1{fill:#006837;}.cls-1,.cls-10,.cls-11,.cls-12,.cls-13{stroke:#000;}.cls-1,.cls-10,.cls-11,.cls-12,.cls-14,.cls-2,.cls-3,.cls-4,.cls-5,.cls-6,.cls-7,.cls-8,.cls-9{stroke-miterlimit:10;}.cls-2,.cls-3,.cls-4,.cls-5,.cls-6,.cls-7,.cls-8,.cls-9{stroke:#ff0;}.cls-2{fill:url(#radial-gradient);}.cls-3{fill:url(#radial-gradient-2);}.cls-4{fill:url(#radial-gradient-3);}.cls-5{fill:url(#radial-gradient-4);}.cls-6{fill:url(#radial-gradient-5);}.cls-7{fill:url(#radial-gradient-6);}.cls-8{fill:url(#radial-gradient-7);}.cls-9{fill:url(#radial-gradient-8);}.cls-10{fill:#fff;}.cls-11,.cls-12{stroke-width:0.5px;}.cls-11{fill:url(#radial-gradient-9);}.cls-12{fill:url(#radial-gradient-10);}.cls-13,.cls-14{fill:red;}.cls-13{stroke-linejoin:bevel;}.cls-14{stroke:red;}</style><radialGradient id="radial-gradient" cx="155.03" cy="290.23" r="45.29" gradientTransform="translate(302.36 -3.99) rotate(54.71)" gradientUnits="userSpaceOnUse"><stop offset="0" stop-color="#fff" stop-opacity="0"/><stop offset="0.18" stop-color="#ffffc8" stop-opacity="0.21"/><stop offset="0.48" stop-color="#ffff74" stop-opacity="0.55"/><stop offset="0.73" stop-color="#ffff35" stop-opacity="0.79"/><stop offset="0.91" stop-color="#ffff0f" stop-opacity="0.94"/><stop offset="1" stop-color="#ff0"/></radialGradient><radialGradient id="radial-gradient-2" cx="228.29" cy="186.73" r="45.29" gradientTransform="translate(248.81 -107.49) rotate(54.71)" xlink:href="#radial-gradient"/><radialGradient id="radial-gradient-3" cx="161.86" cy="393.82" r="45.29" gradientTransform="translate(389.79 34.18) rotate(54.71)" xlink:href="#radial-gradient"/><radialGradient id="radial-gradient-4" cx="235.68" cy="290.32" r="45.29" gradientTransform="translate(336.48 -69.78) rotate(54.71)" xlink:href="#radial-gradient"/><radialGradient id="radial-gradient-5" cx="316.33" cy="290.32" r="45.29" gradientTransform="translate(370.53 -135.6) rotate(54.71)" xlink:href="#radial-gradient"/><radialGradient id="radial-gradient-6" cx="323.71" cy="393.82" r="45.29" gradientTransform="translate(458.13 -97.93) rotate(54.71)" xlink:href="#radial-gradient"/><radialGradient id="radial-gradient-7" cx="396.98" cy="290.32" r="45.29" gradientTransform="translate(404.59 -201.43) rotate(54.71)" xlink:href="#radial-gradient"/><radialGradient id="radial-gradient-8" cx="470.24" cy="186.82" r="45.29" gradientTransform="translate(351.04 -304.93) rotate(54.71)" xlink:href="#radial-gradient"/><radialGradient id="radial-gradient-9" cx="-1313.23" cy="1151.34" r="9.44" gradientTransform="matrix(0.58, 0.82, -0.82, 0.58, 1864.32, 683.8)" gradientUnits="userSpaceOnUse"><stop offset="0" stop-color="#666"/><stop offset="0.03" stop-color="#565656"/><stop offset="0.1" stop-color="#3b3b3b"/><stop offset="0.18" stop-color="#252525"/><stop offset="0.28" stop-color="#141414"/><stop offset="0.39" stop-color="#090909"/><stop offset="0.55" stop-color="#020202"/><stop offset="1"/></radialGradient><radialGradient id="radial-gradient-10" cx="-1366.97" cy="1196.16" r="6.57" gradientTransform="translate(1885.67 754.25) rotate(54.71)" xlink:href="#radial-gradient-9"/></defs><title>Asset 55</title><g id="Layer_2" data-name="Layer 2"><g id="Layer_3" data-name="Layer 3"><rect class="cls-1" x="2.4" y="1.97" width="626.37" height="550.23"/><ellipse class="cls-2" cx="155.03" cy="290.23" rx="57.39" ry="28.43" transform="translate(-171.43 249.09) rotate(-54.71)"/><ellipse class="cls-3" cx="228.29" cy="186.73" rx="57.39" ry="28.43" transform="translate(-56.01 265.19) rotate(-54.71)"/><ellipse class="cls-4" cx="161.86" cy="393.82" rx="57.39" ry="28.43" transform="translate(-253.1 298.41) rotate(-54.71)"/><ellipse class="cls-5" cx="235.68" cy="290.32" rx="57.39" ry="28.43" transform="translate(-137.45 314.95) rotate(-54.71)"/><ellipse class="cls-6" cx="316.33" cy="290.32" rx="57.39" ry="28.43" transform="translate(-103.39 380.78) rotate(-54.71)"/><ellipse class="cls-7" cx="323.71" cy="393.82" rx="57.39" ry="28.43" transform="matrix(0.58, -0.82, 0.82, 0.58, -184.75, 430.51)"/><ellipse class="cls-8" cx="396.98" cy="290.32" rx="57.39" ry="28.43" transform="translate(-69.34 446.61) rotate(-54.71)"/><ellipse class="cls-9" cx="470.24" cy="186.82" rx="57.39" ry="28.43" transform="translate(46.08 462.7) rotate(-54.71)"/><ellipse class="cls-10" cx="163.28" cy="278.61" rx="14.42" ry="7.14" transform="translate(-158.46 250.92) rotate(-54.71)"/><ellipse class="cls-11" cx="165.87" cy="277.1" rx="11.96" ry="5.93" transform="translate(-156.15 301.7) rotate(-63.46)"/><ellipse class="cls-12" cx="119.58" cy="329.58" rx="8.33" ry="4.13" transform="translate(-228.71 289.32) rotate(-63.46)"/><path class="cls-13" d="M2.4,2V552.22H628.77V2ZM570.68,128.67s-17.33,0-17.33,17.33,17.33,17.33,17.33,17.33-17.33,0-17.33,17.34S570.68,198,570.68,198s-17.33,0-17.33,17.33,17.33,17.34,17.33,17.34-17.33,0-17.33,17.33,17.33,17.33,17.33,17.33-17.33,0-17.33,17.34S570.68,302,570.68,302s-17.33,0-17.33,17.33,17.33,17.34,17.33,17.34-17.33,0-17.33,17.33,17.33,17.33,17.33,17.33-17.33,0-17.33,17.34S570.68,406,570.68,406s-17.33,0-17.33,17.33,17.33,17.34,17.33,17.34-17.33,0-17.33,17.33,17.33,17.33,17.33,17.33c-16.66,0-18.51,10.42-18.35,15.82a19.33,19.33,0,0,1,.35,3.18,17.36,17.36,0,0,1-.35-3.18c-.94-5-4.38-14.15-17-14.15C518,477,518,494.33,518,494.33S518,477,500.68,477s-17.33,17.33-17.33,17.33S483.35,477,466,477s-17.34,17.33-17.34,17.33,0-17.33-17.33-17.33S414,494.33,414,494.33,414,477,396.68,477s-17.33,17.33-17.33,17.33S379.35,477,362,477s-17.34,17.33-17.34,17.33,0-17.33-17.33-17.33S310,494.33,310,494.33,310,477,292.68,477s-17.33,17.33-17.33,17.33S275.35,477,258,477s-17.34,17.33-17.34,17.33,0-17.33-17.33-17.33S206,494.33,206,494.33,206,477,188.68,477s-17.33,17.33-17.33,17.33S171.35,477,154,477s-17.34,17.33-17.34,17.33,0-17.33-17.33-17.33S102,494.33,102,494.33,102,477,84.68,477c-13.44,0-16.46,10.43-17.13,15.11a14.45,14.45,0,0,1-.2,2.22,16.78,16.78,0,0,1,.2-2.22c.1-4.81-1.58-15.73-18.71-15.93l-.46,0v0h.46c2.74-.15,16.87-1.66,16.87-17.32,0-17.33-17.33-17.33-17.33-17.33s17.33,0,17.33-17.33-17.33-17.34-17.33-17.34,17.33,0,17.33-17.33S48.38,372.2,48.38,372.2s17.33,0,17.33-17.34-17.33-17.33-17.33-17.33,17.33,0,17.33-17.33-17.33-17.34-17.33-17.34,17.33,0,17.33-17.33S48.38,268.2,48.38,268.2s17.33,0,17.33-17.34-17.33-17.33-17.33-17.33,17.33,0,17.33-17.33-17.33-17.34-17.33-17.34,17.33,0,17.33-17.33S48.38,164.2,48.38,164.2s17.33,0,17.33-17.34-17.33-17.33-17.33-17.33,17.33,0,17.33-17.33S48.38,94.86,48.38,94.86C65,94.86,66.9,84.45,66.74,79a18.72,18.72,0,0,1-.36-3.18A18,18,0,0,1,66.74,79c.94,5,4.38,14.16,17,14.16,17.34,0,17.34-17.34,17.34-17.34s0,17.34,17.33,17.34,17.33-17.34,17.33-17.34,0,17.34,17.34,17.34,17.33-17.34,17.33-17.34,0,17.34,17.33,17.34,17.34-17.34,17.34-17.34,0,17.34,17.33,17.34,17.33-17.34,17.33-17.34v1s0,16.34,17.34,16.34,17.33-17.34,17.33-17.34,0,17.34,17.33,17.34,17.34-17.34,17.34-17.34,0,17.34,17.33,17.34,17.33-17.34,17.33-17.34,0,17.34,17.34,17.34,17.33-17.34,17.33-17.34,0,17.34,17.33,17.34,17.34-17.34,17.34-17.34,0,17.34,17.33,17.34,17.33-17.34,17.33-17.34,0,17.34,17.34,17.34,17.33-17.34,17.33-17.34,0,17.34,17.33,17.34,17.34-17.34,17.34-17.34,0,17.34,17.33,17.34,17.33-17.34,17.33-17.34c0,17.14,12.44,18.41,17.17,18.28a16,16,0,0,1,1.8-.14,15.26,15.26,0,0,1-1.8.14c-4.43.55-15.53,3.32-15.53,17.19C553.35,128.67,570.68,128.67,570.68,128.67Z"/><path class="cls-14" d="M.5.5V554.21H630V.5ZM619.39,545.33H10.92v-533H619.39Z"/></g></g></svg>