<svg xmlns="http://www.w3.org/2000/svg" viewBox="0 0 679.91 658.07" preserveAspectRatio="none"><defs><style>.cls-1{fill:#2f0b20;}.cls-1,.cls-2{stroke:#000;stroke-miterlimit:10;}.cls-2{fill:#003128;}</style></defs><title>Asset 20</title><g id="Layer_2" data-name="Layer 2"><g id="Layer_1-2" data-name="Layer 1"><polygon class="cls-1" points="679.18 532.67 47.8 532.67 56.8 638.38 679.18 638.38 679.18 532.67"/><ellipse class="cls-1" cx="465.34" cy="311.77" rx="14.06" ry="34.32"/><circle class="cls-1" cx="465.34" cy="262.79" r="21.92"/><path class="cls-1" d="M363.64,6.54,261.47,253.79s305.22,16.07,417.71,0L569.16,6.54S477.06-7,363.64,6.54Z"/><ellipse class="cls-1" cx="465.34" cy="382.47" rx="21.92" ry="35.32"/><rect class="cls-1" x="406.34" y="417.79" width="114.6" height="201.61"/><path class="cls-2" d="M317,171.36s-18.83,3.77-17.58,37.67H271.74s18.58,12.56,21.85,22.61l3.27,10H259.19s59,22.61,57.76,46.47c0,0-65.3-17.58-77.85-51.49l-11.31-28.88s-8.33,43.95-14.21,56.51a28.73,28.73,0,0,0,0,23.86s-41-47.72-52.34-47.72,12.56,27.63,12.56,27.63l2.51,20.09S160,258,85.89,260.52c0,0,52.74,15.07,54,27.63l1.26,12.56s-33.91-12.56-45.21-20.1L73.33,265.54s-38.92-5-12.55,35.17a359.52,359.52,0,0,0,56.51,66.55L51.61,324.57.5,307s0,57.77,11.3,60.28,54,8.79,62.79,15.07,6.28,16.33,20.09,16.33-2.51,20.09-2.51,20.09S55.75,460.19,79.61,485.3s30.14,25.12,30.14,25.12,33.91-22.61,33.91-37.67,32.65-2.52,32.65-2.52l37.27-7.52L263,510.42,373.6,462.71s18.7-18.82,18.7,0,11.3,57.75,11.3,57.75L425,541.06s-32.65,48.47-25.12,63.54S435,657.34,435,657.34s33.91-28.88,23.86-55.25-20.09-48.38-20.09-48.38l21.95-21.94,47.12,16.32S622.1,615.36,640.94,619.4s37.67,12.83,37.67,12.83-4.05-9.8-7.9-11.18-27.24-9.63-29.44-8.8-29.72-13.76-29.72-13.76L517.16,544s20.36-2.48,24.49-7.7,13.76-33.58,13.76-33.58-25.59-6.33-27.8-6.6-28.89,21.19-28.89,21.19l.82,12.93.28,5s-31.1-9.36-32.75-11-5.5-9.63-5.5-9.63l16.79-22s39.16-11.4,21-29.83-19.45-34-19.45-34,28.53-5.19,22-31.13-49.28-27.24-49.28-27.24l86.9-11.67s-7.79-23.34-32.43-23.34-45.39,7.78-50.58,3.89-19.45-36.31-35-24.64-33.72,35-33.72,35,25.94-35,19.45-44.09S358,290,358,290l-8.42,4.74s17.5-26.79,7.12-59.21S317,171.36,317,171.36Z"/><path class="cls-2" d="M143.11,433.29s5.35,27.9.55,39.46"/><path class="cls-2" d="M176,441.92c29.88-2.56,46.11,11.1,46.11,11.1l-8-31.59"/><path class="cls-2" d="M333,322.59c-28.6,7.68-19.64,47.81-53.8,12.8l-34.15-35,75.14-6.83s2.68-30.74,22.26,0L362,324.29"/><path class="cls-2" d="M172.55,393c-20.49-6.83-5.12-12.8-28.6,0s-28.6,41-28.6,41,48.67.85,60.62-6.83"/><path class="cls-2" d="M478.36,492.54s-15.81-.84-32.61-21.13-11.2-28.7-11.2-28.7l11.2-18.89S423.36,440.61,408,434.31s-39.19-10.49-39.19-10.49,20.29-42.69,39.19-42,36.39,9.79,36.39,9.79"/><path class="cls-2" d="M275.89,369s-48,2-53.81,12.85-18.75,39.61-18.75,39.61h36.28s40.1-26.74,42.4-26.23-9.17,38.85-9.17,38.85l34.37,14.37,32.35-38.64-16.3-37"/><path class="cls-1" d="M213.58,462.71l20.78,145.57s46.35,25,120.86,0L373.6,462.71S290.47,483.5,213.58,462.71Z"/></g></g></svg>