<svg xmlns="http://www.w3.org/2000/svg" viewBox="0 0 243.53 599.65"><defs><style>.cls-1{fill:#e1e1e1;}.cls-1,.cls-2,.cls-3{stroke:#000;stroke-miterlimit:10;}.cls-2{fill:#edff00;}</style></defs><title>Asset 65</title><g id="Layer_2" data-name="Layer 2"><g id="Layer_5" data-name="Layer 5"><rect class="cls-1" x="98.56" y="169.29" width="44.71" height="429.87"/><path class="cls-2" d="M240.79,119,127.12,217.88a8.31,8.31,0,0,1-10.8,0L2.74,111.69a6.3,6.3,0,0,1,0-9.64L119.68,2.5a8.28,8.28,0,0,1,10.8,0L240.79,109.34A6.3,6.3,0,0,1,240.79,119Z"/><path class="cls-3" d="M235.83,109.33,130.15,7a7.94,7.94,0,0,0-10.34,0l-112,95.38a6.05,6.05,0,0,0,0,9.23L116.59,213.32a7.94,7.94,0,0,0,10.34,0l108.9-94.75A6,6,0,0,0,235.83,109.33ZM231,118.22,126.66,209a7.62,7.62,0,0,1-9.91,0L12.51,111.53a5.79,5.79,0,0,1,0-8.85L119.83,11.32a7.62,7.62,0,0,1,9.91,0L231,109.37A5.81,5.81,0,0,1,231,118.22Z"/><ellipse class="cls-3" cx="154.1" cy="123.66" rx="10.82" ry="8.85"/><path class="cls-3" d="M84.38,123h56.88s4.46-8,5.1-8.34.85-1.24,7-1a87.56,87.56,0,0,1,8.79.72,11.44,11.44,0,0,1,3,7.12l4.8-.84,5-5.38.58-2.72-2.18-.84,1.16-7.19-2-1,.29-3-13-13.9s-33.85-1.82-54.61,0L90.24,98s-22.08,2.19-26.48,3.19l-13.17,5.13L49.91,113l-2.12.94v2.75h1.4L51.51,123h6.81s3.72-9.11,5.21-9.39,12.23-.76,13.93-.19S83,118.66,84.38,123"/><ellipse class="cls-3" cx="71.42" cy="123.57" rx="10.82" ry="8.85"/><path class="cls-2" d="M92.35,102.36h35.38s1.47-.07,1.47-.86V90.12s-.37-1.58-1.69-1.71-19.17,0-19.17,0a4.19,4.19,0,0,0-2.87.86c-1,1-13.56,12.3-13.56,12.3S91.25,102,92.35,102.36Z"/><path class="cls-2" d="M132.22,89.76v11.45s.15,1.25,1.31,1.15,26,0,26,0,2.7-.24,2-2.77-6.85-10.74-6.85-10.74,0-.51-2.53-.5-18.18,0-18.18,0S132.22,88.33,132.22,89.76Z"/></g></g></svg>