<svg xmlns="http://www.w3.org/2000/svg" xmlns:xlink="http://www.w3.org/1999/xlink" viewBox="0 0 369.17 398.35"><defs><style>.cls-1{fill:#e1e1e1;}.cls-1,.cls-10,.cls-11,.cls-12,.cls-13,.cls-14,.cls-15,.cls-16,.cls-17,.cls-18,.cls-2,.cls-3,.cls-4,.cls-5,.cls-6,.cls-7,.cls-8,.cls-9{stroke:#000;stroke-miterlimit:10;}.cls-3{fill:none;}.cls-4{fill:#fcfbd6;}.cls-5{fill:#edff00;}.cls-6{fill:url(#New_Gradient_Swatch_2_copy);}.cls-7{fill:url(#New_Gradient_Swatch_2_copy-2);}.cls-8{fill:#003128;}.cls-9{fill:url(#New_Gradient_Swatch_2_copy-3);}.cls-10{fill:url(#New_Gradient_Swatch_2_copy-4);}.cls-11{fill:url(#New_Gradient_Swatch_2_copy-5);}.cls-12{fill:url(#New_Gradient_Swatch_2_copy-6);}.cls-13{fill:url(#linear-gradient);}.cls-14{fill:url(#linear-gradient-2);}.cls-15{fill:url(#New_Gradient_Swatch_copy);}.cls-16{fill:url(#linear-gradient-3);}.cls-17{fill:url(#linear-gradient-4);}.cls-18{fill:url(#linear-gradient-5);}</style><radialGradient id="New_Gradient_Swatch_2_copy" cx="127.96" cy="98.1" r="25.22" gradientUnits="userSpaceOnUse"><stop offset="0" stop-color="#fff"/><stop offset="0.13" stop-color="#dfe4fd"/><stop offset="0.3" stop-color="#bdc7fa"/><stop offset="0.46" stop-color="#a2b1f8"/><stop offset="0.64" stop-color="#8fa1f7"/><stop offset="0.81" stop-color="#8497f6"/><stop offset="1" stop-color="#8094f6"/></radialGradient><radialGradient id="New_Gradient_Swatch_2_copy-2" cx="244.6" cy="98.91" r="25.22" xlink:href="#New_Gradient_Swatch_2_copy"/><radialGradient id="New_Gradient_Swatch_2_copy-3" cx="127.48" cy="120.13" r="43.54" xlink:href="#New_Gradient_Swatch_2_copy"/><radialGradient id="New_Gradient_Swatch_2_copy-4" cx="246.75" cy="120.71" r="37.45" xlink:href="#New_Gradient_Swatch_2_copy"/><radialGradient id="New_Gradient_Swatch_2_copy-5" cx="125.41" cy="142.78" r="14.8" xlink:href="#New_Gradient_Swatch_2_copy"/><radialGradient id="New_Gradient_Swatch_2_copy-6" cx="242.05" cy="143.58" r="14.8" xlink:href="#New_Gradient_Swatch_2_copy"/><linearGradient id="linear-gradient" x1="103.37" y1="212.6" x2="148.49" y2="212.6" gradientUnits="userSpaceOnUse"><stop offset="0" stop-color="#ff7ba7"/><stop offset="1" stop-color="#ff7ba7"/></linearGradient><linearGradient id="linear-gradient-2" x1="220.01" y1="213.4" x2="265.13" y2="213.4" xlink:href="#linear-gradient"/><linearGradient id="New_Gradient_Swatch_copy" x1="81.88" y1="234.63" x2="169.03" y2="234.63" xlink:href="#linear-gradient"/><linearGradient id="linear-gradient-3" x1="214.82" y1="235.21" x2="274.63" y2="235.21" xlink:href="#linear-gradient"/><linearGradient id="linear-gradient-4" x1="121.07" y1="257.27" x2="125.69" y2="257.27" xlink:href="#linear-gradient"/><linearGradient id="linear-gradient-5" x1="237.71" y1="258.08" x2="242.33" y2="258.08" xlink:href="#linear-gradient"/></defs><title>Asset 75</title><g id="Layer_2" data-name="Layer 2"><g id="Layer_6" data-name="Layer 6"><rect class="cls-1" x="0.5" y="0.5" width="368.17" height="397.35" rx="7.04"/><rect class="cls-2" x="7.06" y="50.8" width="353.59" height="258.81"/><line class="cls-3" x1="0.5" y1="22.37" x2="368.67" y2="22.37"/><rect class="cls-4" x="7.06" y="317.83" width="353.59" height="24.6" rx="3.67"/><rect class="cls-3" x="61.76" y="323.16" width="257.88" height="9.43"/><rect class="cls-3" x="26.4" y="353.81" width="38.66" height="7.54" rx="1.88"/><polygon class="cls-2" points="55.68 321.09 60.63 326.04 65.57 321.09 55.68 321.09"/><circle class="cls-1" cx="64.33" cy="357.15" r="5.84"/><polygon class="cls-3" points="9.65 354.84 9.65 361.14 13.64 361.14 17.23 363.72 17.23 352.04 13.44 354.83 9.65 354.84"/><path class="cls-3" d="M20.28,358a2.31,2.31,0,0,1-1.53,2.33"/><path class="cls-3" d="M22.08,357.88a4.47,4.47,0,0,1-2.33,4"/><path class="cls-3" d="M23.9,358a6.28,6.28,0,0,1-2.79,5.21"/><path class="cls-3" d="M20.28,358.09a2.31,2.31,0,0,0-1.53-2.33"/><path class="cls-3" d="M22.08,358.24a4.5,4.5,0,0,0-2.33-4"/><path class="cls-3" d="M23.9,358.09a6.27,6.27,0,0,0-2.79-5.21"/><circle class="cls-3" cx="107.79" cy="364.14" r="12.5"/><polygon class="cls-3" points="104.15 363.72 111.81 368.73 111.81 358.81 104.15 363.72"/><rect class="cls-3" x="101.88" y="358.41" width="1.89" height="10.75"/><circle class="cls-3" cx="263.79" cy="364.14" r="12.5"/><polygon class="cls-3" points="267.43 363.72 259.77 368.73 259.77 358.81 267.43 363.72"/><rect class="cls-3" x="267.81" y="358.41" width="1.89" height="10.75"/><circle class="cls-3" cx="227.29" cy="367.64" r="16"/><polygon class="cls-3" points="228.95 367.11 219.15 373.52 219.15 360.81 228.95 367.11"/><polygon class="cls-3" points="238.95 367.11 229.15 373.52 229.15 360.81 238.95 367.11"/><circle class="cls-3" cx="143.29" cy="367.64" r="16"/><polygon class="cls-3" points="141.64 367.11 151.44 373.52 151.44 360.81 141.64 367.11"/><polygon class="cls-3" points="131.64 367.11 141.44 373.52 141.44 360.81 131.64 367.11"/><circle class="cls-3" cx="185.33" cy="368.61" r="18.48"/><polygon class="cls-3" points="195.91 368.1 178.93 376.64 178.93 359.73 195.91 368.1"/><path class="cls-3" d="M365.68,363.08C332,380.92,263.63,393.13,184.81,393.13S37.4,380.88,3.76,363"/><rect class="cls-5" x="55.68" y="50.8" width="258.81" height="258.81"/><rect class="cls-3" x="336.28" y="6.48" width="8.56" height="9.67"/><rect class="cls-3" x="336.28" y="6.48" width="8.56" height="2.98"/><rect class="cls-3" x="320.16" y="13.43" width="8.81" height="2.73"/><polygon class="cls-3" points="361.36 14.5 358.05 11.2 361.24 8.01 359.83 6.6 356.64 9.79 353.34 6.48 351.92 7.89 355.23 11.2 351.81 14.62 353.22 16.04 356.64 12.61 359.95 15.91 361.36 14.5"/><path class="cls-6" d="M105.4,92.37s5.06-22.78,18.69-19.86l3.39-.26s6.93-2.47,10-1.3l1.21.53s4.43-2.74,8.23.88,3.54,15.23,3.54,15.23l-20.82,38.13-6.11-.9Z"/><path class="cls-7" d="M222,93.17s5.07-22.78,18.7-19.86l3.39-.26s6.93-2.46,10-1.3l1.22.53s4.43-2.74,8.23.89,3.54,15.22,3.54,15.22l-20.83,38.13-6.1-.9Z"/><path class="cls-8" d="M134.21,160.79s-3.58,3.59-2.48,16.82l.15,2h-6l-.43-9.24c0-.52,0-1,0-1.57a33.12,33.12,0,0,0-1.19-8.44Z"/><path class="cls-8" d="M250.85,161.59s-3.59,3.59-2.48,16.82l.14,2h-6l-.43-9.23c0-.53,0-1.05,0-1.57a32.47,32.47,0,0,0-1.18-8.45Z"/><path class="cls-9" d="M93,77.87s-8.35-4.93-9.11,4.93c0,0,1.52,5.31,9.11,12.13s8.72,9.49,8.72,12.14-3.42,27.31,0,33,8.34,22.75,22.75,23.51,23.14-7.58,31.1-22.76,9.86-38.68,9.86-38.68,2.66-7.59,4.94-14-1.7-11.51-3.45-9.17c0,0-8-5.46-13.24,1.94,0,0-25.35,30.19-26.21,41.09,0,0-2.22-6.23-5-5.65C122.53,116.32,103.59,79.72,93,77.87Z"/><path class="cls-10" d="M239.17,117.13c2.73-.59,5,5.64,5,5.64.86-10.9,12.63-41.08,12.63-41.08,5.25-7.4,8-3.83,8-3.83,1.75-2.34,6.56,4.56,8.71,11A35.37,35.37,0,0,1,275,101.5s5.19,25-2.78,40.13-16.69,23.51-31.1,22.75-19.34-17.82-22.75-23.51,0-30.34,0-33c0,0-1-14.68,1.52-19.21s3.52-13.09,10.83-10.32,6.46,24.92,9,27.44S239.17,117.13,239.17,117.13Z"/><path class="cls-11" d="M124.48,163.58s-3.11-.86,0-11.88,0-16.27,0-16.27,4.27-4.59,3-13.46"/><path class="cls-12" d="M241.12,164.38s-3.11-.86,0-11.88,0-16.27,0-16.27,4.27-4.59,3-13.46"/><path class="cls-13" d="M103.37,206.87s5.06-22.78,18.69-19.86l3.39-.26s6.93-2.47,10-1.3l1.22.53s4.42-2.75,8.23.88,3.54,15.23,3.54,15.23l-20.83,38.13-6.11-.9Z"/><path class="cls-14" d="M220,207.67s5.06-22.78,18.69-19.86l3.39-.26s6.93-2.46,10-1.3l1.21.53s4.43-2.74,8.23.89,3.54,15.22,3.54,15.22L244.3,241l-6.11-.9Z"/><path class="cls-8" d="M132.18,275.29s-3.58,3.58-2.48,16.81l.15,2h-6l-.44-9.24c0-.52,0-1,0-1.57a33.42,33.42,0,0,0-1.18-8.44Z"/><path class="cls-8" d="M248.82,276.09s-3.58,3.59-2.48,16.82l.15,2h-6l-.44-9.24c0-.52,0-1,0-1.57a33.12,33.12,0,0,0-1.19-8.44Z"/><path class="cls-15" d="M91,192.37s-8.35-4.93-9.1,4.93c0,0,1.51,5.31,9.1,12.13s8.72,9.48,8.72,12.14-3.41,27.31,0,33,8.34,22.76,22.76,23.52,23.13-7.59,31.1-22.76,9.86-38.68,9.86-38.68,2.65-7.59,4.93-14-1.69-11.51-3.45-9.17c0,0-8-5.46-13.24,1.94,0,0-25.35,30.19-26.21,41.09,0,0-2.22-6.23-4.94-5.65C120.51,230.82,101.56,194.22,91,192.37Z"/><path class="cls-16" d="M237.14,231.62c2.73-.58,5,5.65,5,5.65.86-10.9,12.63-41.09,12.63-41.09,5.26-7.4,8-3.82,8-3.82,1.76-2.34,6.56,4.56,8.71,11A35.37,35.37,0,0,1,273,216s5.19,24.95-2.78,40.13-16.68,23.51-31.1,22.75-19.34-17.82-22.75-23.51,0-30.34,0-33c0,0-1-14.68,1.52-19.21s3.53-13.09,10.83-10.32,6.47,24.92,9,27.44S237.14,231.62,237.14,231.62Z"/><path class="cls-17" d="M122.46,278.08s-3.11-.86,0-11.89,0-16.26,0-16.26,4.26-4.59,3-13.46"/><path class="cls-18" d="M239.09,278.88s-3.11-.86,0-11.88,0-16.27,0-16.27,4.27-4.59,3-13.46"/></g></g></svg>